<?xml version="1.0" encoding="UTF-8"?>
<svg width="175px" height="203px" viewBox="0 0 175 203" version="1.1" xmlns="http://www.w3.org/2000/svg" xmlns:xlink="http://www.w3.org/1999/xlink">
    <!-- Generator: Sketch 54.1 (76490) - https://sketchapp.com -->
    <title>logo-childs-play</title>
    <desc>Created with Sketch.</desc>
    <defs>
        <path d="M101.6504,99.662 L91.6384,99.662 L91.6384,109.671 L82.8304,109.671 L82.8304,99.662 L72.8224,99.662 L72.8224,90.856 L82.8304,90.856 L82.8304,80.847 L91.6384,80.847 L91.6384,90.856 L101.6504,90.856 L101.6504,99.662 Z M164.9474,139.325 C165.1874,143.72 164.3244,148.765 159.9024,151.357 C155.4844,153.953 152.1214,154.577 149.5044,154.241 C146.8824,153.903 145.0114,152.608 143.5704,151.357 C142.1304,150.109 124.7384,130.989 124.7384,130.989 C124.7384,130.989 122.7544,128.039 118.5134,125.09 C117.8164,124.604 117.0504,124.119 116.2304,123.646 C114.0684,125.354 111.3414,126.377 108.3734,126.377 C104.8714,126.377 101.7014,124.957 99.4044,122.662 C98.4004,121.659 97.5664,120.486 96.9374,119.191 L77.5294,119.191 C76.9064,120.486 76.0704,121.659 75.0644,122.662 C72.7694,124.957 69.5994,126.377 66.0974,126.377 C63.1294,126.377 60.4024,125.354 58.2424,123.646 C57.4204,124.119 56.6544,124.604 55.9554,125.09 C51.7184,128.039 49.7324,130.989 49.7324,130.989 C49.7324,130.989 32.3434,150.109 30.9024,151.357 C29.4614,152.608 27.5864,153.903 24.9664,154.241 C22.3514,154.577 18.9884,153.953 14.5684,151.357 C10.1484,148.765 9.2834,143.72 9.5234,139.325 C9.7634,134.927 11.1094,131.181 11.1094,131.181 C11.1094,131.181 27.8264,82.756 30.1324,76.223 C32.4394,69.686 35.8494,66.807 38.6854,65.555 C41.5194,64.307 48.0464,64.688 50.1174,64.691 C56.1194,64.704 62.0764,72.188 70.9144,72.188 L81.7094,72.188 C76.3634,65.06 67.6994,51.505 71.6324,42.905 C73.7734,38.224 79.0234,35.851 87.2344,35.851 C93.3064,35.851 97.0194,34.465 98.2714,31.729 C101.2054,25.322 91.8924,10.88 85.3364,3.281 L89.1344,0 C91.0864,2.259 108.0584,22.404 102.8374,33.817 C100.6954,38.498 95.4474,40.872 87.2344,40.872 C81.1644,40.872 77.4514,42.258 76.1994,44.993 C73.4184,51.065 81.6324,64.348 88.0824,72.188 L103.5564,72.188 C112.3944,72.188 118.3514,64.704 124.3514,64.691 C126.4254,64.688 132.9534,64.307 135.7874,65.555 C138.6214,66.807 142.0314,69.686 144.3394,76.223 C146.6424,82.756 163.3634,131.181 163.3634,131.181 C163.3634,131.181 164.7074,134.927 164.9474,139.325 Z M16.6269,179.7294 C14.9589,178.8454 12.9629,178.5184 11.4569,178.5184 C9.1329,178.5184 7.5289,179.7614 6.7109,182.7404 C6.3499,184.1154 6.0569,185.6864 6.0569,187.4204 C6.0569,190.1694 7.2339,191.1514 9.4919,191.1514 C11.0649,191.1514 13.3869,190.6614 15.0569,189.9404 C15.2539,191.4464 15.3179,192.4934 15.3179,193.3124 C15.3179,193.8354 15.3179,194.2284 15.2209,195.2434 C13.4199,195.8314 10.8029,196.1924 9.0019,196.1924 C2.8809,196.1924 -0.0001,193.3124 -0.0001,187.6824 C-0.0001,185.2924 0.4259,183.0354 1.1129,181.0054 C2.6859,176.2924 6.4489,173.4774 12.0139,173.4774 C14.1409,173.4774 16.5959,173.9034 18.2639,174.6884 C18.0349,175.8334 17.2499,178.0604 16.6269,179.7294 Z M29.5547,184.1806 C29.5547,183.5266 29.1287,183.1656 27.9827,183.1656 C27.0997,183.1656 26.5097,183.3296 25.6917,183.7546 L23.5647,195.8646 L18.1637,195.8646 L22.3867,171.9076 C23.8927,171.7096 26.0527,171.5136 27.8517,171.5136 L26.2817,180.2856 L26.5427,180.2856 C27.7207,179.1076 29.0627,178.4526 30.3727,178.4526 C33.2847,178.4526 35.1507,179.8606 35.1507,182.7076 C35.1507,183.1656 35.0857,183.6896 35.0197,184.0816 L33.9397,190.1046 C33.9087,190.2686 33.8747,190.4976 33.8747,190.5616 C33.8747,190.8896 34.0387,191.0876 34.3987,191.0876 L36.5917,191.0876 L36.2637,193.0166 C35.8377,195.4386 34.3317,196.1926 32.4667,196.1926 C29.5547,196.1926 28.3107,194.9486 28.3107,192.5266 C28.3107,191.8396 28.3747,191.1186 28.5387,190.2026 L29.5217,184.6066 C29.5547,184.4426 29.5547,184.2786 29.5547,184.1806 Z M43.7578,177.2089 C41.9898,177.2089 41.1388,176.0629 41.1388,174.8189 C41.1388,172.9869 42.5138,171.5139 44.6408,171.5139 C46.3748,171.5139 47.1938,172.6589 47.1938,173.9369 C47.1938,175.8989 45.8518,177.2089 43.7578,177.2089 Z M46.4748,193.0169 C46.0488,195.4389 44.5428,196.1929 42.6778,196.1929 C39.7638,196.1929 38.5198,194.9489 38.5198,192.5269 C38.5198,191.8389 38.5858,191.1189 38.7498,190.2029 L40.7458,178.7799 L46.1468,178.7799 L44.1508,190.1049 C44.1168,190.2689 44.0838,190.4979 44.0838,190.5619 C44.0838,190.8899 44.2478,191.0869 44.6078,191.0869 L46.8008,191.0869 L46.4748,193.0169 Z M54.5566,190.1049 C54.5236,190.2689 54.4926,190.4979 54.4926,190.5619 C54.4926,190.8899 54.6546,191.0869 55.0156,191.0869 L57.2066,191.0869 L56.8806,193.0169 C56.4546,195.4389 54.9496,196.1929 53.0836,196.1929 C50.1696,196.1929 48.9276,194.9489 48.9276,192.5269 C48.9276,191.8389 48.9926,191.1189 49.1566,190.2029 L52.3636,171.9069 C53.8696,171.7099 56.0296,171.5139 57.8296,171.5139 L54.5566,190.1049 Z M74.1937,190.072 C74.1597,190.236 74.1287,190.497 74.1287,190.562 C74.1287,190.89 74.2907,191.087 74.6527,191.087 L76.8127,191.087 L76.4847,193.017 C76.0587,195.439 74.6187,196.193 72.7537,196.193 C71.2147,196.193 70.0367,195.734 69.3497,194.13 L69.0877,194.13 C67.6487,195.767 66.2407,196.193 64.4087,196.193 C60.7087,196.193 59.1057,193.705 59.1057,189.615 C59.1057,188.796 59.1387,188.075 59.2697,187.191 C60.3807,180.417 64.1467,178.453 68.0077,178.453 C68.6957,178.453 70.0037,178.616 70.7887,178.78 L71.9997,171.907 C73.5727,171.71 75.6657,171.514 77.4667,171.514 L74.1937,190.072 Z M69.9707,183.33 C69.4807,183.101 68.6957,182.936 68.1057,182.936 C66.5347,182.936 65.6187,183.788 65.0297,187.159 C64.8987,188.01 64.8007,188.697 64.8007,189.32 C64.8007,191.054 65.4547,191.675 66.5687,191.675 C67.4177,191.675 68.0077,191.544 68.5977,191.283 L69.9707,183.33 Z M86.7597,175.1142 C86.1387,178.4532 84.0757,181.3332 80.4097,182.6422 C79.7887,181.7592 79.2327,180.7112 79.0037,179.7292 C80.8027,179.0742 81.7517,178.1912 82.1137,177.2422 L80.9667,177.2422 C80.8357,176.3902 80.8357,175.9982 80.8357,175.5402 C80.8357,174.6232 80.9667,173.5102 81.1637,172.5282 L87.2517,172.5282 L86.7597,175.1142 Z M98.5097,183.6894 C97.1017,183.2314 95.0077,182.9044 93.7307,182.9044 C92.8477,182.9044 92.4217,183.1664 92.4217,183.9844 C92.4217,185.5224 98.5097,184.9654 98.5097,190.0074 C98.5097,193.7374 95.6287,196.1924 90.8187,196.1924 C88.8537,196.1924 86.5957,195.6034 85.1227,194.7204 C85.3847,193.3124 86.1057,191.3154 86.7597,190.1384 C88.1657,190.9874 90.2287,191.5774 91.7347,191.5774 C92.5527,191.5774 92.9117,191.3154 92.9117,190.5304 C92.9117,188.8944 86.7907,189.4814 86.7907,184.4104 C86.7907,181.0714 89.4097,178.4534 94.7127,178.4534 C95.8907,178.4534 98.2797,178.7144 99.5237,179.0744 C99.3597,180.3834 98.9667,182.1514 98.5097,183.6894 Z M116.7381,189.1888 L115.0681,189.1888 L113.8911,195.8648 L108.0641,195.8648 L110.9121,179.8268 C110.9451,179.6308 110.9761,179.3688 110.9761,179.2378 C110.9761,178.8458 110.7811,178.5838 110.1581,178.5838 L108.5211,178.5838 L108.8161,176.9468 C109.2091,174.6888 110.6501,173.4778 113.3341,173.4778 C114.7731,173.4778 115.9841,173.7388 116.7381,174.5248 C117.7851,173.7388 119.1271,173.4778 120.2401,173.4778 C123.9371,173.4778 126.1641,175.5718 126.1641,179.8268 C126.1641,186.0788 121.8101,189.1888 116.7381,189.1888 Z M118.5371,177.9618 C117.9491,177.9618 117.5231,178.0268 117.0001,178.1258 L115.8531,184.6068 L117.3591,184.6068 C119.0941,184.6068 120.3711,183.0668 120.3711,180.1878 C120.3711,178.6818 119.7171,177.9618 118.5371,177.9618 Z M132.8066,190.1049 C132.7736,190.2689 132.7406,190.4979 132.7406,190.5619 C132.7406,190.8899 132.9046,191.0869 133.2636,191.0869 L135.4566,191.0869 L135.1286,193.0169 C134.7046,195.4389 133.1996,196.1929 131.3336,196.1929 C128.4196,196.1929 127.1756,194.9489 127.1756,192.5269 C127.1756,191.8389 127.2426,191.1189 127.4066,190.2029 L130.6136,171.9069 C132.1196,171.7099 134.2796,171.5139 136.0776,171.5139 L132.8066,190.1049 Z M147.2073,194.1304 L146.9783,194.1304 C145.6033,195.9314 144.0973,196.1924 142.6583,196.1924 C139.2543,196.1924 137.3553,194.0654 137.3553,189.6144 C137.3553,188.8944 137.3883,187.9774 137.5193,187.1914 C138.5663,180.6134 142.2633,178.4534 146.2573,178.4534 C147.1403,178.4534 148.3843,178.6164 149.2033,178.8454 C149.8903,178.6164 150.6753,178.4534 151.7223,178.4534 C152.4103,178.4534 153.4253,178.5504 153.9493,178.7474 L151.9843,190.1054 C151.9533,190.2694 151.9203,190.4974 151.9203,190.5624 C151.9203,190.8904 152.0843,191.0874 152.4433,191.0874 L154.6363,191.0874 L154.3083,193.0174 C153.8823,195.4394 152.4433,196.1924 150.5783,196.1924 C149.0393,196.1924 147.8943,195.7334 147.2073,194.1304 Z M147.8613,183.2314 C147.4353,183.0674 146.7813,182.9364 146.2573,182.9364 C144.7523,182.9364 143.8023,183.9184 143.2793,187.1594 C143.1483,188.0434 143.0503,188.7634 143.0503,189.3194 C143.0503,191.0214 143.6383,191.6754 144.7523,191.6754 C145.4063,191.6754 145.9293,191.5774 146.4863,191.3154 L147.8613,183.2314 Z M166.1562,195.5697 C163.0472,201.6907 160.5252,202.9347 157.2202,202.9347 C156.3362,202.9347 154.7322,202.8037 153.4572,202.1167 C153.7832,200.5467 154.2732,199.0077 154.9942,197.5017 C155.8452,197.8607 157.0902,198.0577 157.9392,198.0577 C158.7262,198.0577 159.2502,197.6327 159.8382,196.6827 L160.4272,195.7007 L158.2672,184.0817 C158.2012,183.7547 158.0062,183.5587 157.6462,183.5587 L155.7152,183.5587 L156.0412,181.6277 C156.4672,179.2057 158.0392,178.4527 159.9042,178.4527 C162.6212,178.4527 163.3082,179.7297 163.5372,182.1517 L164.0272,187.3557 C164.0602,187.7477 164.0932,188.4347 164.0932,189.4177 L164.3552,189.4177 C164.5512,188.6657 164.8792,187.7477 165.1072,187.2567 L169.1012,178.6817 C170.5082,178.6817 172.7992,178.7797 174.4692,179.0417 L166.1562,195.5697 Z" id="path-1"></path>
    </defs>
    <g id="Symbols" stroke="none" stroke-width="1" fill="none" fill-rule="evenodd">
        <g id="Logo/Childs-Play-Black">
            <g id="logo-childs-play">
                <mask id="mask-2" fill="white">
                    <use xlink:href="#path-1"></use>
                </mask>
                <use id="Mask" fill="#99BB72" xlink:href="#path-1"></use>
            </g>
        </g>
    </g>
</svg>